<svg 
    id="Layer_1"
    xmlns="http://www.w3.org/2000/svg"
    viewBox="0 -3 477 226"
    aria-label="Futurice Tech Weeklies"
    class="w-100 h-100"
>
    <style>
        .st0 {
            stroke: #7cfbd1;
            stroke-width: 1px; 
            fill: none;
        }
    </style>
    <defs>  
        <path id="logo-shape-1" d="M350.3 136.8c1.7-9.4 3.4-18.3 5-27h39.4c-1.5 9-3 17.7-4.6 26.9 4.3 0 8.2.1 12.2 0 6.7-.3 10.3-3 11.5-9.4 2-10 3.5-20.1 5.3-30.5h-83.8c-1.6 8.9-3.1 17.7-4.7 26.5-1.3 7 3.1 13 10.2 13.5 3 .2 5.9 0 9.5 0zM144.4 96.7l-.7 2.1c-1.6 8.5-3.3 16.9-4.6 25.4-1 6.9 3.9 12.4 10.9 12.5 15.7.2 31.3.1 47-.1 7.9-.1 11.5-4.1 11.6-12.7h-31.4c-5.1 0-10.1-.1-15.7-.2 1-5.5 1.8-10.2 2.8-15.3h40.6c.7-4.1 1.4-7.8 2.1-11.8-21 .1-41.6.1-62.6.1zM314 117.9c-7.2-1.2-14.2-2.5-21-3.6-4.7 7.2-11 10.2-18.8 10.5-3 .1-6 .1-9-.2-7.9-.8-15.4-5.6-14.3-16.8.3-3.7.9-7.3 1.4-11H230c-.4.3-.6.4-.7.5-.3 1.1-.7 2.2-1 3.3-2.7 11.3-1.5 21.7 8.5 29.1 3.5 2.6 7.8 4.4 12 5.8 10.2 3.3 20.8 2.8 31.2 1.8 8.6-.8 17-3.2 24.3-8.2 4.2-2.8 8-6 9.7-11.2zm-49.9 102.4c-5.3-14.2-10.8-27.5-16.6-40.5h-32.6c-2.4 13.5-5.1 26.8-6.9 40.4h14.9c1.1-5.7 2.7-11.1 3-16.5.3-6.5 4.3-9.6 8.9-13 4.2 10 8.4 19.7 12.5 29.5 5.2.1 10.3.1 16.8.1zm94 .1H405c.7-4.1 1.5-8.2 2.3-12.9h-31.7c1-5.5 1.8-10.4 2.8-15.7h27.1c.6-4.1 1.2-7.7 1.8-11.8h-42.1c-2.3 13.2-4.7 26.4-7.1 40.4zm-250.5-28.5h27.2c.7-4.2 1.3-7.9 1.9-11.8H94.5c-2.3 13.5-5.2 26.7-6.8 40.4h46.6c.7-4.2 1.3-8.3 2.1-12.9h-31.5c.9-5.4 1.7-10.1 2.7-15.7zm39.9 28.5h47c.7-4.2 1.3-8.4 2.1-13.1H165c.9-5.3 1.8-10 2.7-15.4h27.2c.7-4.3 1.3-7.8 1.9-11.8h-42.2c-2.3 13.2-4.6 26.5-7.1 40.3zm278.9-40.8c-.3.4-.5.8-.8 1.3 1 1.6 1.6 3.7 3.1 4.7 3.2 2.3 6.6 4.4 10.2 5.9 4.3 1.7 8.9 2.5 13.3 4 5.6 2 6.5 6.7 2 10.6-3.6 3.1-8.1 3.6-12.7 3-5.3-.6-8.7-3.8-11-9.2-4.8 2.1-9.4 4-14 5.9 1.2 7.4 5.4 11.6 11.3 13.6 10.5 3.5 21 3.3 30.9-1.9 3.6-1.9 7.1-4.6 9.4-7.8 6.4-8.6 6.9-22.2-7.9-27.2-.9-.3-1.9-.6-2.8-.9-10.1-3.6-20.6-1.3-31-2zM53.3 69.8c-2 5.3-2.4 8.9-1.5 12.5h79.4c.7-4.2 1.4-8.2 2.2-12.5H53.3zm227 110.3c-2.4 13.4-4.7 26.5-7 39.5 4 1.4 39 1.5 44.3.3.5-3.7 1.1-7.5 1.7-12h-28.6c1.6-9.7 3.1-18.7 4.6-27.8h-15zM4.8 220.6c4.4 0 8.2-.2 12 .1 3.8.3 5.7-1.3 7-4.7 4.3-10.9 8.8-21.8 13.2-32.7.4-1 .6-2.1 1-3.4H27.1c-3.7 6.2-4.8 13.7-9.6 19.4-.5-6.4-1-12.8-1.5-19.3H2c.8 13.7 1.8 27 2.8 40.6zm56.4-.1c5.4-13.6 11.3-26.6 16.4-40.6H64.2c-2.6 6.7-5.2 13.4-7.7 20-.5-.1-.9-.2-1.4-.2-1.8-6.3-.1-13-1.4-19.7H42.2c.7 13.6 1.5 27 2.2 40.5h16.8zm85.5-138.2h68.9c.7-4.3 1.3-8.3 1.9-12.5h-68.8c-.6 4.1-1.3 8.1-2 12.5zM76.9 96.8c-.5 2.4-.9 4.7-1.3 6.9-1.2 7-2.5 14-3.5 21-1 6.6 4.1 11.5 9.7 12.1 6.4.6 11.1-2.9 12.3-9.5 1-5 2-10 2.9-15.1.9-5 1.6-10 2.4-15.4H76.9zm162-14.5h78.3c-2.9-5.2-7.3-7.9-12.2-9.6-15.2-5.6-30.5-5.3-46-1.2-7.2 1.8-13.9 5-20.1 10.8zm96.1 97.4c-2.4 13.7-4.7 27-7.1 40.6H343c2.4-13.2 4.7-26.3 7.2-39.9-5.1-1.4-9.9-.5-15.2-.7zm81.3-26.5H370c-.7 4.1-1.4 8.2-2.1 12.4h46c.8-4.1 1.5-7.9 2.4-12.4zM97 165.6h46.3c.7-4.1 1.3-8 2-12.2h-46c-.7 4.1-1.5 7.9-2.3 12.2zm108.4-12.3h-46c-.8 4.1-1.5 8-2.3 12.2h46.3c.7-4 1.3-7.9 2-12.2zm221.9 12.3h48.8c-1.1-6.5-5.2-9.9-10.6-11.6-8.6-2.8-17.3-2.6-25.8.7-5.1 1.9-9.2 5.3-12.4 10.9zm-64.9-95.9h-22.2c-.8 4.1-1.5 8.2-2.3 12.6h22.2c.7-4.1 1.4-8.1 2.3-12.6zm61.4.1h-22c-.6 4.1-1.3 8.2-1.9 12.4h21.8c.7-4.3 1.4-8.2 2.1-12.4zM37.1 153.3c-1.5 3.9-3 7.9-4.7 12.2h20.1v-12.2H37.1zm237.3-.2H260c-.6 0-1.4.3-1.8.7-4 3.6-7.9 7.4-12.5 11.6 6.6 0 12.7 1.4 17.6-.4 4.4-1.6 8.3-5.9 11.1-11.9zm-57.1 12.4h15.4c.6-4.2 1.2-8 1.8-12.1h-14.9c-.9 4.1-1.5 7.8-2.3 12.1zm80.6.2c.8-4.3 1.5-8.2 2.3-12.4h-15.1c-.7 4.2-1.4 8.1-2.2 12.4h15zm41.6-12.3c-.6 4.2-1.2 8.1-1.8 12h15.1c.6-4.3 1.2-8.1 1.7-12h-15zM.8 165.5H15v-12.1H0c.2 4.3.5 8.1.8 12.1zm73-12.2c-1.5 4.2-2.9 8.1-4.4 12.4h14.3c1.6-4.1 3.1-8 4.8-12.4H73.8zM270.4 13.6h7.7v28.2h-7.7V13.6zm-90.3 0v15.2c0 3.7-1.7 5.9-5.1 5.9s-5.1-2.2-5.1-5.9V13.6h-7.8v17.2c0 7.2 5.4 11.5 13 11.5s13-4.3 13-11.5V13.6h-8zm54.3 0v15.2c0 3.7-1.7 5.9-5.1 5.9s-5.1-2.2-5.1-5.9V13.6h-7.8v17.2c0 7.2 5.4 11.5 13 11.5s13-4.3 13-11.5V13.6h-8z"/>
        <circle id="logo-shape-2" cx="274.1" cy="4.9" r="4.9"/>
        <path id="logo-shape-3" d="M247 13.6v28.2h7.7V20.6h10.8v-7H247zm81.8 19.3c-1.4 1.6-3.4 2.6-5.6 2.6h-.1c-4.1 0-6.5-2-7.5-5.1h21.7v-2.8c0-8.1-5.9-14.6-14.5-14.6-8.1 0-14.7 6.5-14.7 14.7 0 8.1 6.1 14.7 14.8 14.7h.2c4.5 0 8.1-1.7 10.6-4.3l-4.9-5.2zm-5.9-13.1c3.3 0 5.7 1.5 6.7 4.4H316c1.1-2.6 3.6-4.4 6.9-4.4zm-21.2 13.1c-1.3 1.2-3 2-5 2h-.2c-4-.1-7-3.3-7-7.3s3-7.2 7-7.3h.2c2.1 0 3.9.9 5.2 2.3l5.3-5.3c-2.6-2.7-6.2-4.4-10.6-4.4h-.1c-8 .1-14.4 6.5-14.4 14.6s6.4 14.6 14.4 14.6h.1c4.1 0 7.7-1.6 10.3-4.1l-5.2-5.1zM200.5 13.6V3.1h-7.7v26.4c0 9.2 3 12.2 11.8 12.2h6.6v-7.2h-5.5c-4.8 0-5.3-.7-5.3-5.1v-8.9h10.8v-6.9h-10.7zm-53.6-1.9c0-2.7 1.6-4.2 3.8-4.2 1.4 0 2.5.8 3 1.6l4.7-4.7C156 1 152.8 0 149.7 0c-5.7 0-10.4 5-10.5 11.6v30.1h7.7V20.2h10v-6.6h-10v-1.9z"/>
        <clipPath id="clip-path" x="0" y="0" width="100%" height="100%">
            <use xlink:href="#logo-shape-1" />
            <use xlink:href="#logo-shape-2" />
            <use xlink:href="#logo-shape-3" />
        </clipPath>  
    </defs>
    <g class="st0">
        <use xlink:href="#logo-shape-1" />
        <use xlink:href="#logo-shape-2" />
        <use xlink:href="#logo-shape-3" />
    </g>
    <g class="animation-logo-blink" clip-path="url(#clip-path)">
        <g class="animation-logo-slide">
            <rect x="0" y="0" width="100%" height="100%" />
            <rect x="0" y="-80%" width="100%" height="80%" fill="transparent" />
            <rect x="0" y="-180%" width="100%" height="100%" />
        </g>
    </gi>
</svg>