<svg 
  id="Layer_1"
  xmlns="http://www.w3.org/2000/svg"
  viewBox="96 52 194 90"
  role="img"
  focusable="false"
  aria-label="Futurice Tech Weeklies"
  class="w-100 h-100"
>
  <style>
      .st0 {
          stroke: #7cfbd1;
          stroke-width: 1px;
          fill: none;
      }
      .r1 {
        transform: translateY(52px);
      }
      .r2 {
        transform: translateY(calc(52px - 80%));
      }
      .r3 {
        transform: translateY(calc(52px - 180%));
      }
  </style>
    <defs>  
      <path id="logo-shape-1" class="st0" d="M98.88 132.1v-8.832h5.9475l-.2489 8.832h.5175c.4252 0 .5808-.1456.8722-.816.1951-.4488.8245-1.8096 1.3986-3.024.5742-1.2144 1.3314-2.8344 1.683-3.6l.639-1.392h2.3715c1.3044 0 2.3716.0352 2.3716.0783 0 .103-1.2816 2.8267-3.396 7.2177a2213.5029 2213.5029 0 0 0-3.3333 6.9586l-1.6227 3.4066-3.6.002-3.6.001zm17.353 2.832c.0682-3.3.1772-7.2744.2422-8.832l.1183-2.832h4.7787l-.1385 4.5275-.1385 4.5275.5346-.0635c.4994-.0593.6634-.354 2.4934-4.4795l1.9589-4.416 2.8151-.0531c1.9248-.0363 2.8151.0126 2.8151.1547 0 .1144-.8472 1.9526-1.8826 4.0851a3939.7584 3939.7584 0 0 0-4.1724 8.6293l-2.2898 4.752h-7.2585zm15.688 5.664c.009-.1848.9814-4.1376 2.16-8.784l2.1429-8.448 9.168-.0499c5.0424-.0274 9.1628.0158 9.1566.096-.006.0802-.2946 1.2259-.6408 2.5459l-.6293 2.4-11.953.1014-.1886.7173c-.4153 1.5793-1.5527 6.1764-1.5527 6.2755 0 .0582 3.1104.1057 6.912.1057 5.4014 0 6.9121.0525 6.9123.24.0002.132-.2779 1.3417-.618 2.688l-.6182 2.448h-10.134c-9.53 0-10.133-.02-10.117-.336zm23.102.002c.1305-.4155 4.3369-17.151 4.3369-17.255 0-.041 4.104-.0745 9.12-.0745 8.1921 0 9.12.0309 9.12.304 0 .266-.361 1.8011-.9776 4.1573l-.1877.7173-11.954.1014-.8321 3.264c-.4576 1.7952-.8322 3.372-.8324 3.504-.0002.1876 1.5099.24 6.9117.24 3.8016 0 6.9097.0648 6.9069.144-.003.0792-.289 1.2672-.636 2.64l-.631 2.496-10.225.0497c-9.683.047-10.22.0318-10.119-.288zm22.582.195c.003-.0818.9805-4.0367 2.172-8.7887l2.1664-8.64h14.327l2.769 8.16c2.1616 6.3702 2.7442 8.297 2.656 8.784l-.113.624h-3.3512c-1.8432 0-3.3513-.0224-3.3513-.0497s-.4805-1.4313-1.0676-3.12c-.5872-1.6887-1.5896-4.5823-2.2275-6.4303s-1.2197-3.4242-1.2928-3.5028c-.0731-.0784-.9606.5894-1.9723 1.4842l-1.8394 1.6267-2.4705 9.896-3.205.0526c-1.7627.029-3.2024-.0143-3.1993-.096zm26.112-.005c.003-.0793.9804-4.032 2.1718-8.784l2.1662-8.64 3.2186-.0528c3.0063-.0491 3.2119-.0301 3.1161.288-.1615.5363-2.9983 11.935-2.9983 12.048 0 .0554 2.8512.1008 6.336.1008s6.336.0577 6.336.1282c0 .0705-.2692 1.237-.5983 2.592l-.5983 2.4638h-9.5777c-5.2678 0-9.5752-.0648-9.572-.144zm21.323-.192c.009-.1849.9814-4.1377 2.16-8.784l2.1429-8.448 3.12-.0529c2.698-.0456 3.12-.013 3.12.2416 0 .1619-.9612 4.1384-2.136 8.8368l-2.136 8.5424h-3.144c-2.8728 0-3.1426-.029-3.127-.336zm8.8206.192c.003-.0793.9805-4.032 2.1719-8.784l2.1663-8.64 9.1561-.05c5.3477-.029 9.156.0222 9.156.1233 0 .2488-1.1593 4.679-1.2722 4.8617-.052.0841-2.7571.153-6.0113.153h-5.9168l-.7996 3.216c-.4398 1.7687-.8448 3.366-.9 3.5495-.094.312.3544.337 6.8942.384l6.9946.0504-.6394 2.496c-.3516 1.3728-.6425 2.5608-.6464 2.64-.004.0792-4.5863.144-10.183.144s-10.173-.0648-10.17-.144zm22.458.069c0-.0684.7015-2.8196 1.1681-4.581l.1907-.72h13.802l.1095-.4364c.1108-.4413-.1007-.9216-3.7285-8.4677-.8567-1.782-1.5577-3.2724-1.5577-3.312 0-.0396 1.603-.072 3.562-.072h3.5618l1.2617 2.64c.694 1.452 1.5868 3.3313 1.9842 4.176.3974.8449 1.2933 2.729 1.9911 4.187l1.2686 2.6509-.5024 2.005-.5024 2.0052h-11.304c-6.2174 0-11.304-.0337-11.304-.075zm-157.44-26.613v-2.688h6.144v5.376h-6.144zm13.856 2.523c.0352-.0907.5824-1.2978 1.216-2.6824l1.152-2.5176 6.624-.012v1.5078c0 .8293-.0555 2.039-.1234 2.688l-.1233 1.1802h-4.4046c-2.4226 0-4.3758-.0742-4.3406-.1648zm16.288.0651c0-.0549.5127-1.2429 1.1393-2.64l1.1393-2.5402 6.0214-.106-.1293.533c-.071.2932-.5943 1.505-1.1627 2.693l-1.0334 2.16h-2.9874c-1.643 0-2.9874-.0449-2.9874-.0998zm8.8371-.0425c.003-.08.289-1.2689.636-2.6417l.631-2.496 10.02-.0497c5.511-.0274 10.018.016 10.015.096-.003.0801-.289 1.269-.636 2.6417l-.631 2.496-10.02.0497c-5.511.0273-10.018-.0159-10.015-.096zm23.223-.002c-.002-.0792.2754-1.2888.6168-2.688l.6206-2.544h10.052c9.4834 0 10.047.019 9.9526.336-.0547.1848-.2814 1.0704-.5039 1.968-.2224.8976-.4891 1.956-.5928 2.352l-.1884.72h-9.9766c-5.4871 0-9.9783-.0648-9.9804-.144zm22.544-.192c.1056-.3486.931-3.586 1.1503-4.512l.125-.528h3.1644c1.7404 0 3.166.0648 3.1682.144.002.0792-.2755 1.2888-.6168 2.688l-.6207 2.544h-3.236c-2.9929 0-3.2286-.0253-3.1344-.336zm12.795.0826a4202.542 4202.542 0 0 1 2.999-2.688l2.7178-2.4346h3.1862c1.8482 0 3.1862.0754 3.1862.1795 0 .6028-.5978 1.3107-2.6521 3.1406l-2.3079 2.0559h-3.7051c-3.0823 0-3.6578-.0427-3.424-.2534zm13.313-.0779c.0556-.1873.283-1.075.5054-1.9727.2224-.8976.4892-1.956.5928-2.352l.1885-.72h3.1606c1.7383 0 3.1583.0648 3.1555.144-.003.0792-.289 1.2672-.6359 2.64l-.6307 2.496-3.2186.0527c-3.0058.0492-3.212.0302-3.1176-.288zm21.245.1873c.003-.0792.2921-1.2672.6426-2.64l.6374-2.496 3.1974-.0526c1.7586-.029 3.1974-.0168 3.1974.027 0 .072-.689 2.7768-1.1681 4.5857l-.1907.72h-3.1606c-1.7383 0-3.1582-.0648-3.1553-.144zm8.9003-.192c.0547-.1848.2815-1.0704.5039-1.968.2224-.8976.4892-1.956.5928-2.352l.1885-.72h9.9766c7.853 0 9.9767.0511 9.9769.24.0001.132-.278 1.3416-.618 2.688l-.6182 2.448h-10.051c-9.4823 0-10.045-.019-9.9515-.336zm22.998-.1514c-.123-.2698-.2236-.6524-.2236-.85 0-.3713.4532-2.3168.7953-3.4146l.1945-.624h21.505l-.1238.5639c-.0681.3101-.3565 1.498-.6408 2.64l-.5169 2.076-20.766.0993zm-69.44-10.845c-2.2812-.2912-5.0732-1.1022-6.9675-2.0238-3.3768-1.6427-5.3396-4.2189-5.9436-7.801-.2615-1.5508-.2603-1.92.0113-3.6753.1661-1.0733.5459-2.6858.844-3.5834l.542-1.632 5.6128-.0509c3.0871-.028 5.613-.003 5.613.0557 0 .0586-.181.4613-.4022.8948-.5788 1.1346-1.326 4.246-1.326 5.5222 0 4.0617 2.8415 6.154 8.352 6.1503 2.0437-.0013 4.7662-.5837 6.3738-1.3632 1.7538-.8504 4.0023-3.0712 4.778-4.7191l.5603-1.1904 11.066-.0192-.1287.432c-.2472.8303-1.8516 3.7046-2.634 4.719-2.3436 3.0384-6.4596 5.7328-10.742 7.0318-3.447 1.0457-5.1182 1.275-9.8492 1.3523-2.4288.0396-5.0208-.005-5.76-.0996zm11.136-1.3493c5.3649-.9017 9.4425-2.7578 12.649-5.7578 1.1605-1.0856 2.7656-3.199 3.4574-4.5525l.319-.624-8.746.0008-.768 1.2655c-1.1106 1.8302-3.0078 3.5465-4.9393 4.4686-2.2158 1.0578-3.9435 1.4077-6.9646 1.4104-3.8597.003-5.996-.7047-7.6391-2.5324-1.141-1.269-1.5457-2.4862-1.5357-4.6192.007-1.4305.4358-3.754.9322-5.0476.1176-.3063-.1826-.3258-4.2635-.2778l-4.39.0518-.4343 1.3397c-1.3631 4.2046-.8487 8.24 1.3759 10.793 1.5628 1.7936 4.5721 3.3004 7.9864 3.999 3.5016.7163 8.9812.7511 12.96.0824zm-86.959.8597c-1.7084-.626-2.8817-2.0438-3.2268-3.8996-.1938-1.0419-.1354-1.3574 1.3714-7.4192.8656-3.482 1.6175-6.4823 1.6708-6.667.0894-.3097.5173-.336 5.4601-.336 2.9497 0 5.3631.0334 5.3631.0743s-.8659 3.5142-1.9242 7.7183c-2.0153 8.0058-2.32 8.852-3.5173 9.765-1.3488 1.0288-3.5797 1.3568-5.1971.7642zm4.2681-1.4763c.4372-.2893.9668-.863 1.1769-1.2749.2101-.4118 1.1519-3.8246 2.0928-7.5838l1.7108-6.835h-8.5042l-1.509 6.0558c-1.681 6.7461-1.7236 7.226-.762 8.5911.302.4288.938.9872 1.4131 1.241 1.2286.6558 3.231.567 4.3815-.1943zm24.033 1.599c-2.1407-.6511-3.6439-2.6424-3.6331-4.8126.003-.6719.578-3.3256 1.5798-7.296l1.5745-6.24 14.269-.0492c13.532-.0467 14.264-.0318 14.173.288-.0531.1855-.2847 1.1148-.5147 2.0652s-.544 2.1807-.6978 2.734l-.2798 1.0062-17.926.0998-.711 2.784c-.391 1.5312-.715 2.892-.72 3.024-.007.1891 2.203.24 10.435.24h10.444l-.1817.816c-.6534 2.9329-1.4906 4.207-3.3294 5.0672l-.96.449-11.52-.0146c-6.336-.008-11.737-.0805-12.001-.161zm24.694-1.5922c.8643-.599 1.3157-1.2817 1.7128-2.5906.1532-.5047.2794-.9393.2805-.9657.001-.0264-4.7067-.048-10.462-.048-6.9638 0-10.464-.0654-10.464-.1953 0-.1074.4428-1.965.984-4.128l.9838-3.9328h17.953l.4815-1.92.4814-1.92h-26.244l-.19.72c-.1044.396-.8037 3.1772-1.5538 6.1804-1.3006 5.2074-1.3532 5.5046-1.1355 6.4121.1401.584.4784 1.2285.8757 1.6682 1.2736 1.4097.5372 1.3405 13.717 1.2892l11.825-.046zm60.053 1.4612c-1.0426-.3697-2.2945-1.4612-2.7899-2.4322-.8085-1.5848-.726-2.3268 1.041-9.3533l1.6175-6.432 37.649-.0979-.1479.625c-1.0566 4.4656-3.7416 14.741-3.971 15.197-.7978 1.5852-2.3627 2.6098-4.2128 2.7583-2.7876.2237-5.2603-2.0682-5.2603-4.8757 0-.8277.8405-4.7604 1.4615-6.8383.0946-.3164-.3873-.336-8.257-.336h-8.3576l-.1876.72c-.1032.396-.6222 2.4397-1.1534 4.5415-.6326 2.503-1.1309 4.0709-1.4442 4.5445-1.2758 1.9278-3.7898 2.7589-5.9875 1.9795zm3.3402-1.1397c.895-.3738 1.6682-1.1049 1.9897-1.881.1363-.329.7736-2.6733 1.4162-5.2095l1.1684-4.6113 9.4458-.0498c5.1952-.0274 9.4446.0158 9.4432.096-.002.0802-.4334 1.866-.96 3.9682-.5266 2.1023-.957 3.96-.9564 4.128.005 1.3464 1.3745 3.2642 2.6267 3.6774.3723.1229 1.1848.1867 1.8056.1418 1.1801-.0854 2.096-.6227 2.8991-1.7007.2803-.3763 3.8035-13.721 3.8035-14.406 0-.1034-7.1896-.1745-17.64-.1745h-17.64l-1.4639 5.8538c-.8052 3.2196-1.4639 6.247-1.4639 6.7277 0 2.6902 2.9402 4.5206 5.5262 3.4404zm-135.7-25.718v-3.168h44.494l-.2412 1.008c-.1326.5544-.4836 1.98-.7799 3.168l-.5387 2.16h-42.934zm42.221 1.488c.1035-.396.3572-1.3896.5638-2.208l.3755-1.488h-42.009v4.416h40.881zm6.3624 1.44c.0114-.3514 1.4577-5.8975 1.5663-6.006.0507-.0508 7.0469-.0702 15.547-.0432l15.455.0492-.768 3.12-.768 3.12h-15.52c-12.292 0-15.518-.05-15.512-.24zm30.309-1.44c.587-2.251.787-3.112.787-3.3889 0-.2823-1.259-.3052-14.352-.2603l-14.352.0492-.4245 1.6197c-.2336.8908-.478 1.8628-.5433 2.16l-.1187.5403h28.816zm9.331.9793c3.2927-2.936 7.7431-4.8256 13.463-5.7166 2.858-.4452 8.9903-.4134 11.715.0607 4.9276.8576 8.3096 2.6775 10.27 5.526l.5714.8306-36.786-.016.768-.6847zm33.207-1.043c-3.4731-3.5868-12.861-4.9908-21.627-3.2344-3.0878.6186-7.3452 2.339-8.9878 3.6319-.4784.3765-.4278.3778 15.447.382l15.927.0043-.759-.7838zm12.201 1.6419c0-.056.267-1.1576.5935-2.448s.6754-2.6701.7754-3.0661l.1819-.72h5.2726c2.8999 0 5.2726.0458 5.2726.1018s-.267 1.1576-.5935 2.448-.6754 2.6701-.7754 3.0661l-.1819.72h-5.2726c-2.8999 0-5.2726-.0458-5.2726-.1018zm10.107-2.6821c.2391-.9504.4842-1.9241.5446-2.1638l.1099-.4358-8.3372.1035-.4348 1.728c-.239.9504-.4841 1.9241-.5446 2.1638l-.1098.4358 8.3372-.1035zm17.162 2.544c.003-.132.3322-1.536.732-3.12l.7267-2.88 10.449-.1022-.1258.531c-.0692.2922-.364 1.4816-.6551 2.6432-.2911 1.1616-.5838 2.3496-.6503 2.64l-.121.528h-5.1804c-4.019 0-5.1792-.0538-5.1751-.24zm9.9096-2.544c.239-.9504.4837-1.9224.5436-2.16l.109-.432h-8.212l-.5083 2.064c-.2795 1.1352-.507 2.1305-.5056 2.2118.002.0813 1.833.1245 4.0705.096l4.068-.0519zm-159.67-9.6092c-.8822-.394-1.482-.9706-1.9881-1.9108-.3813-.7086-.418-1.0985-.4745-5.04l-.0612-4.272h3.0984v3.8495c0 4.858.1192 5.1745 1.9505 5.1745.5918 0 .8953-.1283 1.3283-.5613l.5612-.5612v-7.9015h3.072v3.5258c0 4.0589-.1782 5.2969-.9133 6.3451-.8308 1.1845-1.7254 1.5445-3.9826 1.6023-1.4118.0362-2.0975-.0301-2.5906-.2503zm12.137-.0218c-.822-.405-1.5151-1.2449-1.7623-2.135-.1177-.424-.1987-3.2692-.1994-7.002l-.001-6.288h3.072v4.224h3.648v2.496h-3.648v2.88c0 2.624.0341 2.914.384 3.264.4672.467 1.4712.504 2.0817.0763.2415-.1691.4641-.2771.4946-.24.2239.2727 1.0717 1.8661 1.0717 2.0142 0 .1017-.391.375-.869.6072-1.0846.5269-3.304.5806-4.2722.1033zm9.2336-.1484c-1.1391-.5303-1.8528-1.4552-2.1582-2.7967-.1082-.4752-.1988-2.5272-.2014-4.56l-.005-3.696h3.072v7.9015l.5612.5612c.4528.4528.727.5613 1.4187.5613.5578 0 1.0159-.1282 1.3108-.3667.4474-.362.454-.42.5119-4.512l.0586-4.1453h3.0772l-.0612 4.272c-.0565 3.9415-.0932 4.3314-.4746 5.04-.8978 1.6684-1.9828 2.2088-4.4285 2.206-1.377-.0014-1.8686-.0868-2.6818-.4654zm28.26.1178c-1.1205-.524-1.8707-1.2238-2.3584-2.2004-1.292-2.587-.8395-6.0887 1.0068-7.7905 2.0527-1.8921 6.0055-1.7997 7.6706.1792.4578.544 1.1565 1.9054 1.0276 2.002-.0278.0209-.6533.1863-1.3902.3677-1.0021.2467-1.3588.2721-1.4159.101-.042-.126-.3031-.4828-.5804-.793-1.0324-1.1553-2.9693-.7744-3.5876.7056-.3708.8876-.3521 2.973.0354 3.9415.561 1.4019 2.478 1.8444 3.5116.8106.2915-.2914.5714-.6543.622-.8064.0792-.2373.254-.2408 1.2315-.0248 1.7217.3804 1.7135.3687 1.0902 1.562-.398.7617-.7952 1.1967-1.4796 1.6202-.8459.5234-1.1123.584-2.7755.6317-1.4744.0423-1.9924-.0185-2.6078-.3063zm12.384.0985c-.3696-.1165-1.1104-.6484-1.6461-1.182-1.2376-1.2326-1.72-2.7539-1.5775-4.9745.212-3.3036 2.242-5.3045 5.3815-5.3045 3.2384 0 5.0906 1.8164 5.1883 5.088l.0459 1.536-7.6303.1043.122.6098c.4247 2.124 2.7846 2.7108 4.4009 1.0945l.7335-.7335 2.299 1.1682-.324.5103c-.574.9045-1.0856 1.3622-2.0714 1.8534-.818.4077-1.2153.478-2.6074.4613-.9033-.0108-1.9447-.1149-2.3143-.2314zm4.3442-7.477c-.1846-.9616-.9147-1.488-2.0635-1.488-.529 0-1.1168.0829-1.3061.1842-.3944.211-.8567.866-1.0558 1.4958-.1366.4318-.1358.432 2.2043.432h2.3409zm-76.92.7138c0-5.3658.0564-6.954.2643-7.44.3197-.7471 1.1726-1.5757 1.9081-1.8536.8994-.3398 2.8786-.2475 3.8776.1807l.898.385-.5743 1.007c-.418.7333-.671.9893-.93.9417-1.4404-.2646-1.7148-.2463-2.0623.1377-.1952.2157-.399.7844-.4531 1.264l-.0983.8718h3.5059v2.481l-3.36.111-.1032 8.736H98.882zm42.624 1.1582v-5.664h6.912v2.4826l-3.936.1095-.1032 8.736h-2.8728zm8.832 0v-5.664h3.072v11.328h-3.072zm.4915-7.2252c-.7176-.5645-.9373-1.2217-.6746-2.0178.639-1.9363 3.4471-1.4899 3.4471.548 0 1.5287-1.6115 2.3831-2.7724 1.4698z"/>

      <clipPath id="clip-path" x="0" y="0" width="100%" height="100%">
        <use xlink:href="#logo-shape-1" />
      </clipPath>
  </defs>

  <g class="st0">
    <use xlink:href="#logo-shape-1" />
  </g>
  <g class="animation-logo-blink" clip-path="url(#clip-path)">
      <g class="animation-logo-slide">
          <rect class="r1" x="96" y="0" width="100%" height="100%" />
          <rect class="r2" x="96" y="0" width="100%" height="80%" fill="transparent" />
          <rect class="r3" x="96" y="0" width="100%" height="100%" />
      </g>
  </g>
</svg>
