<svg id="Layer_1" xmlns="http://www.w3.org/2000/svg" viewBox="0 0 478.1 221.7"><style>.st0{fill:#7cfbd1}</style><path class="st0" d="M271.4 13.6h7.7v28.2h-7.7V13.6zm-90.3 0v15.2c0 3.7-1.7 5.9-5.1 5.9s-5.1-2.2-5.1-5.9V13.6h-7.8v17.2c0 7.2 5.4 11.5 13 11.5s13-4.3 13-11.5V13.6h-8zm54.3 0v15.2c0 3.7-1.7 5.9-5.1 5.9s-5.1-2.2-5.1-5.9V13.6h-7.8v17.2c0 7.2 5.4 11.5 13 11.5s13-4.3 13-11.5V13.6h-8z"/><circle class="st0" cx="275.1" cy="4.9" r="4.9"/><path class="st0" d="M248 13.6v28.2h7.7V20.6h10.8v-7H248zm81.8 19.3c-1.4 1.6-3.4 2.6-5.6 2.6h-.1c-4.1 0-6.5-2-7.5-5.1h21.7v-2.8c0-8.1-5.9-14.6-14.5-14.6-8.1 0-14.7 6.5-14.7 14.7 0 8.1 6.1 14.7 14.8 14.7h.2c4.5 0 8.1-1.7 10.6-4.3l-4.9-5.2zm-5.9-13.1c3.3 0 5.7 1.5 6.7 4.4H317c1.1-2.6 3.6-4.4 6.9-4.4zm-21.2 13.1c-1.3 1.2-3 2-5 2h-.2c-4-.1-7-3.3-7-7.3s3-7.2 7-7.3h.2c2.1 0 3.9.9 5.2 2.3l5.3-5.3c-2.6-2.7-6.2-4.4-10.6-4.4h-.1c-8 .1-14.4 6.5-14.4 14.6s6.4 14.6 14.4 14.6h.1c4.1 0 7.7-1.6 10.3-4.1l-5.2-5.1zM201.5 13.6V3.1h-7.7v26.4c0 9.2 3 12.2 11.8 12.2h6.6v-7.2h-5.5c-4.8 0-5.3-.7-5.3-5.1v-8.9h10.8v-6.9h-10.7zm-53.6-1.9c0-2.7 1.6-4.2 3.8-4.2 1.4 0 2.5.8 3 1.6l4.7-4.7C157 1 153.8 0 150.7 0c-5.7 0-10.4 5-10.5 11.6v30.1h7.7V20.2h10v-6.6h-10v-1.9z"/><g><path class="st0" d="M210.2 121.2c.7 10-3.3 15.2-12.2 15.5-15.8.5-31.6.7-47.3.5-6.3-.1-13.8-4.4-12.2-15.9 1.2-8.3 2.8-16.6 4.3-24.9.1-.8.6-1.5 1.1-2.5h65c-.8 5-1.6 9.6-2.3 14.4h-40.7c-.8 4.3-1.6 8.3-2.4 12.8 15.6.1 31 .1 46.7.1zm-3.6 3.6h-47.2c1.1-6.4 2.3-12.8 3.4-19.4h40.6c.4-2.6.8-4.9 1.3-7.6h-58.3c-.3 1.5-.6 2.8-.9 4.1-1.2 6.7-2.2 13.3-3.6 20-1.3 6.6 2.3 11.6 9.1 11.6 15.5.1 30.9.1 46.4 0 6-.1 8.6-2.6 9.2-8.7zM420.8 94.7c-.8 5.5-1.6 10.7-2.4 15.8-.9 5-1.9 10-2.8 15.1-1.2 7-5.1 10.7-12.2 11.2-4.4.3-8.8.5-13.9.7 0-9.8 3.2-18.5 3.9-27.9h-36.6c-1.7 9-3.4 18.2-5.1 27.6-5.1-.3-9.8.9-14.5-1.5-5.6-2.8-8.5-6.6-7.6-12.9 1.4-9.5 3.3-18.8 4.9-28.1 4.7-1.5 68.2-1.5 86.3 0zm-71.9 38.6c1.7-9.2 3.2-17.9 4.8-26.7h43.9c-1.5 9-2.9 17.7-4.5 26.8 3.4 0 5.9-.2 8.3 0 6 .5 9.4-2 10.8-9.1 1.2-5.8 2.1-11.7 3.1-17.6.5-3 .7-6 1.1-9.2h-79c-1.6 9-3.4 17.9-4.7 26.8-.6 3.8 3 8.3 6.7 8.8 3.3.5 6.4.2 9.5.2zM292.7 111.6c4.3.7 8 1.2 11.7 1.9s7.4 1.5 11.4 2.4c-1 5.8-4.9 9.2-8.9 12.2-7.3 5.5-16 7.8-24.8 9.3-10.1 1.6-20.2 1.3-30.1-.9-7.4-1.7-14.2-4.5-19.4-10.4-3.9-4.4-6-9.4-6.1-15.3-.1-5.7.2-11.2 2.8-16.7h25.3c-.7 4.5-1.8 8.6-1.9 12.8-.3 8.8 2.7 13 11.3 14.7 4.6.9 9.5.7 14.2.2 6.5-.7 11.3-4.5 14.5-10.2zm3.5 4c-5 3.3-8.6 6.7-13 8.4-6.3 2.5-13.2 2.7-20 1.4-7.6-1.5-12.8-6.4-13.8-14.2-.6-4.4.2-8.9.3-13.5h-18.2c-.5 2.8-1.1 5.5-1.5 8.3-1 6.6.7 12.5 5 17.5 4 4.7 9.3 7.2 15.2 8.9 8.3 2.5 16.7 2.2 25.2 1.9 9.2-.3 18-2.4 26.1-6.9 3.8-2.1 7.1-4.8 9.7-8.9-5.6-1.1-10.8-2.1-15-2.9zM415.3 203.8c5.5-2.3 10.9-4.5 16.2-6.7 1.6 2.6 2.6 5 4.2 6.8 3.4 3.9 14.8 3.2 17.8.4 3.5-3.3 3.1-7.2-1.4-8.8-4.5-1.5-9.2-2.6-13.7-4.1-5.9-1.8-10.9-4.8-13.3-10.9-.3-.7-.4-1.6-.6-2.8 1.7-.1 3.1-.3 4.5-.3 6.3 0 12.6.1 19-.1 6.3-.2 12.1 1.9 17.5 4.6 8.1 4.1 10.8 11.9 7.4 21.6-3.1 9-10.1 13.8-18.6 16.3-8.9 2.6-18.1 2.6-26.8-.6-7.1-2.5-11.3-7.5-12.2-15.4zm13.7-23.2c3.3 4.9 7.2 6.5 11.4 7.8 4.6 1.4 9.3 2.4 13.7 4.1 6 2.2 7.3 7.8 3.2 12.7-1.1 1.3-2.7 2.5-4.3 3.3-7.8 3.6-17.8 2.8-23.3-6.9-3.4 1.4-6.8 2.9-10.3 4.4 1.1 4.7 3.8 7.8 7.8 9.4 3.2 1.3 6.6 2.3 10 2.6 10.8 1 20.9-.8 28.6-9.3 8.6-9.4 5.7-20.7-6-25.4-9.8-3.9-19.8-2.1-30.8-2.7zM406.6 220.2h-49.5c2.5-14.4 5-28.4 7.5-42.6h45.1c-.9 4.9-1.7 9.5-2.6 14.5h-26.9c-.9 4.3-1.7 8.3-2.6 12.9h31.9c-1.2 5.6-2.1 10.3-2.9 15.2zM367.5 181c-2.1 12-4.2 23.9-6.3 36.2h42.4c.4-2.9.9-5.6 1.4-8.8h-31.7c1.3-6.9 2.5-13.3 3.8-20H404c.5-2.6.9-4.9 1.4-7.4h-37.9zM138.9 177.7c-.9 4.9-1.8 9.4-2.7 14.5h-27.1c-.7 4.6-1.4 8.6-2.1 13.1h31.6c-.9 5.1-1.7 9.8-2.5 14.7H86.4c2.5-14.2 4.9-28.1 7.5-42.4 14.7.1 29.6.1 45 .1zM96.8 181c-2.1 12.1-4.2 24-6.4 36.1h42.5c.5-2.9 1-5.4 1.5-8.7h-31.8c1.3-7 2.4-13.3 3.6-19.9h27c.4-2.7.8-5 1.2-7.5H96.8zM198.9 177.7c-.9 4.9-1.8 9.4-2.7 14.5h-27.1c-.7 4.6-1.4 8.6-2.1 13.1h31.6c-.9 5.1-1.7 9.8-2.5 14.7h-49.7c2.5-14.2 4.9-28.1 7.5-42.4 14.7.1 29.6.1 45 .1zm-42.1 3.3c-2.1 12.1-4.2 24-6.4 36.1h42.5c.5-2.9 1-5.4 1.5-8.7h-31.8c1.3-7 2.4-13.3 3.6-19.9h27c.4-2.7.8-5 1.2-7.5h-37.6zM214 177.5h36.3c.4 2.3.5 4.4 1.3 6.2 3.8 9.5 7.9 18.9 11.7 28.4.9 2.3 1 5 1.6 8h-18.4c-3.9-9.2-7.9-18.6-12-28.1-4.5 2.4-6.5 5.7-7.1 10.3-.8 5.9-2 11.7-3 17.8h-17.9c2.5-14.3 5-28.4 7.5-42.6zm32.6 3.2h-15.1c-4.9 0-9.8.1-14.5.2-2.2 12.5-4.3 24.2-6.4 36.2h10.7c.7-4 1.4-7.9 2.2-11.8.8-3.7 1-7.8 2.9-10.9 2.1-3.3 5.9-5.6 9.3-8.7 4.7 10.9 9 21.2 13.3 31.3h12.5c-4.9-12.2-9.9-24.1-14.9-36.3zM63.5 177.6H80c-5.9 14.5-11.6 28.4-17.4 42.6H43.4c-.8-14-1.5-28-2.3-42.4h14.1c.4 5.4.8 11 1.2 16.5.2 0 .5.1.7.1 2.2-5.7 4.3-11.3 6.4-16.8zm-3.4 39.6c4.9-11.9 9.7-23.8 14.8-36.2H66c-2.6 6.9-5.1 13.5-7.6 20h-5.5l-.6-20H45c.6 12.2 1.2 24.1 1.9 36.1 4.5.1 8.8.1 13.2.1zM49.5 82.2c.8-4.9 1.6-9.4 2.5-14.7 27.6-.3 55.3-.1 83.4-.1-.9 5.3-1.8 10-2.6 14.9-28-.1-55.5-.1-83.3-.1zm81.8-11.5H55c-.5 2.9-.9 5.6-1.3 8.5h76c.5-2.8 1-5.5 1.6-8.5zM.9 177.6h16.6c.4 5.8.9 11.4 1.4 18.1 2.6-6.6 4.9-12.1 7.2-18.1h14.4C34.7 191.9 29 206 23.2 220.2H3.9c-.9-14-1.9-28-3-42.6zm3.6 3.2c.9 12.4 1.8 24.4 2.7 36.3h13.7c4.8-12.1 9.6-24 14.6-36.2h-6.9c-2.6 6.4-5.1 12.8-7.8 19.3h-5c-.5-6.6-1.1-12.9-1.6-19.4H4.5zM297.5 177.6c-1.7 9.4-3.2 18.4-4.9 27.8h29c-.9 5.2-1.7 9.8-2.5 14.8h-47c2.5-14.4 5-28.4 7.5-42.6h17.9zm-14.9 3.3c-2.1 12-4.2 23.9-6.4 36.1H316c.5-2.9.9-5.5 1.3-8.2h-29c1.6-9.2 3.2-18.4 4.8-27.8-3.4-.1-6.7-.1-10.5-.1zM236.3 82.2c6.5-6.8 13.7-10.7 21.8-12.9 15.2-4.1 30.4-4.5 45.6.2 6.3 1.9 11.9 5 15.3 11.1.2.4.2.9.5 1.7-27.6-.1-55-.1-83.2-.1zm9.2-3h67.4c-9.5-12.3-49.8-13.3-67.4 0zM219.7 67.6c-.9 5-1.7 9.7-2.6 14.5h-71.6c.9-4.9 1.7-9.6 2.6-14.5h71.6zm-4.2 3.3h-64.6c-.5 3-.9 5.5-1.3 8.2H214c.6-2.9 1-5.4 1.5-8.2zM156 166.1c1-5.5 1.9-10.4 2.9-15.5h48.8c-1 5.3-1.9 10.3-2.8 15.5H156zm4.3-4H202c.4-2.6.8-5 1.2-7.5h-41.6c-.4 2.5-.8 4.9-1.3 7.5zM96 166.1c1-5.5 1.9-10.4 2.9-15.5h48.8c-1 5.3-1.9 10.3-2.8 15.5H96zm4.3-4H142c.4-2.6.8-5 1.2-7.5h-41.6c-.4 2.5-.8 4.9-1.3 7.5zM366.7 165.1c.9-4.9 1.7-9.6 2.6-14.5h48c1 5.4-1.3 10.3-1.9 15.3-10.1 1.3-45.2.8-48.7-.8zm47.2-10.5h-41.7c-.4 2.6-.8 5-1.2 7.6h41.5c.4-2.3.8-4.7 1.4-7.6zM76.8 94.1h24.8c-1.2 6.9-2.2 13.3-3.4 19.8-.8 4.5-1.6 9.1-2.7 13.6-1.5 6.3-8 10.8-13.6 9.7-7-1.4-11.6-6.9-10.6-13.8 1.3-9.3 3-18.6 4.5-27.8.1-.5.6-.9 1-1.5zm2.3 3.6c-.5 2.5-.9 4.4-1.2 6.3-1.1 6.7-2.5 13.3-3.3 20-.6 4.9 3.1 9 7.5 9.4 5.2.5 9.3-2.4 10.2-7.2 1.7-9.4 3.3-18.8 5-28.4-6-.1-11.9-.1-18.2-.1zM344.6 220.2h-17.9c2.5-14.4 5-28.5 7.5-42.6H352c-2.5 14.3-5 28.4-7.4 42.6zm-3.1-3c2.1-12.1 4.2-24 6.3-36.2h-10.6c-2.1 12.1-4.2 24-6.4 36.2h10.7zM425.5 166.1c2.7-6.8 7.4-11 13.5-13.6 8.9-3.9 18-4.1 27.1-1 6.5 2.2 11 6.5 12 13.7-3.1 1.5-36.7 2.1-52.6.9zm5.8-3.9c.2.3.4.6.6.8h41.9c-1.7-4.2-3.4-6.3-7.4-7.7-9.6-3.3-19.1-3.3-28.3 1.6-2.5 1.3-4.6 3.5-6.8 5.3zM30.8 166.1c2.1-5.6 4-10.5 5.8-15.3h17.6v15.3H30.8zM36 162h15.6c-.2-2.7-.5-5-.7-7.5H38.8c-.9 2.6-1.8 4.9-2.8 7.5zM364.3 67.6c-.9 5-1.8 9.8-2.7 14.7h-24.8c.9-5 1.7-9.7 2.5-14.7h25zm-23.5 11.6h17.8c.5-2.9 1-5.6 1.4-8.5h-17.6c-.5 2.8-1 5.5-1.6 8.5zM401.1 67.6h24.6c-.8 4.9-1.6 9.5-2.4 14.5h-24.8c.9-5 1.7-9.6 2.6-14.5zm3.1 3c-.5 2.8-1 5.6-1.5 8.5h17.6c.4-2.9.8-5.6 1.3-8.5h-17.4zM354.1 166.1h-17.8c.9-5.1 1.7-9.9 2.6-15.2h17.8c-.8 4.9-1.7 9.7-2.6 15.2zm-13.6-4h10.6c.5-2.4.9-4.8 1.5-7.4h-10.7c-.5 2.6-.9 4.8-1.4 7.4zM281.7 166c1-5.7 1.9-10.4 2.8-15.4H302c-.9 5.4-1.7 10.5-2.5 15.4h-17.8zm16.1-11.4h-10.5c-.4 2.6-.8 5-1.3 7.6h10.4c.5-2.4.9-4.8 1.4-7.6zM215.7 166c1-5.7 1.9-10.4 2.8-15.4H236c-.9 5.4-1.7 10.5-2.5 15.4h-17.8zm16.1-11.4h-10.5c-.4 2.6-.8 5-1.3 7.6h10.4c.5-2.4.9-4.8 1.4-7.6zM242.7 166l12.8-15.4h19L262 166h-19.3zm23.6-11.4h-9l-6.3 7.6h8.9l6.4-7.6zM67.8 166.2c2-5.7 3.8-10.6 5.6-15.6h16c.8 6.1-3 10.5-4.7 15.6H67.8zm8.1-11.7c-.9 2.3-1.9 4.9-2.9 7.6h9.7c1-2.6 1.9-4.9 3-7.6h-9.8zM0 165.9v-15.1c5.3-.9 10.5-.2 16.3-.5.3 5.2.6 10.2.8 15.6H0zm13.3-11.4H2.5c.3 2.8.5 5.2.8 7.6h10v-7.6z"/></g></svg>